<svg xmlns="http://www.w3.org/2000/svg" width="24" height="25" viewBox="0 0 24 25" fill="none">
<g clip-path="url(#clip0_526_8064)">
<mask id="mask0_526_8064" style="mask-type:alpha" maskUnits="userSpaceOnUse" x="0" y="0" width="24" height="25">
<path d="M24 24.5V0.5L0 0.5V24.5H24Z" fill="#D9D9D9"/>
</mask>
<g mask="url(#mask0_526_8064)">
<path d="M11.9996 14.9746L19.3496 7.62462C19.5996 7.37462 19.8954 7.25379 20.2371 7.26212C20.5788 7.27045 20.8746 7.39962 21.1246 7.64962C21.3746 7.89962 21.4996 8.19545 21.4996 8.53712C21.4996 8.87879 21.3746 9.17462 21.1246 9.42462L13.4246 17.0996C13.2246 17.2996 12.9996 17.4496 12.7496 17.5496C12.4996 17.6496 12.2496 17.6996 11.9996 17.6996C11.7496 17.6996 11.4996 17.6496 11.2496 17.5496C10.9996 17.4496 10.7746 17.2996 10.5746 17.0996L2.87463 9.39962C2.62463 9.14962 2.50379 8.85795 2.51212 8.52462C2.52046 8.19129 2.64963 7.89962 2.89963 7.64962C3.14963 7.39962 3.44546 7.27462 3.78713 7.27462C4.12879 7.27462 4.42462 7.39962 4.67462 7.64962L11.9996 14.9746Z" fill="white"/>
</g>
</g>
<defs>
<clipPath id="clip0_526_8064">
<rect width="24" height="24" fill="white" transform="translate(0 0.5)"/>
</clipPath>
</defs>
</svg>